<svg width="42" height="42" viewBox="0 0 42 42" fill="none" xmlns="http://www.w3.org/2000/svg">
<path d="M41.0818 20.5404C41.0818 31.8843 31.8857 41.0803 20.5419 41.0803C9.19798 41.0803 0.00195312 31.8843 0.00195312 20.5404C0.00195312 9.19652 9.19798 0.000488281 20.5419 0.000488281C31.8857 0.000488281 41.0818 9.19652 41.0818 20.5404Z" fill="#656565"/>
<path d="M12.6105 15.9997C12.6105 16.4712 13.0018 16.8569 13.4801 16.8569C13.9583 16.8569 14.3496 16.4712 14.3496 15.9997V14.2854H16.0886C16.5669 14.2854 16.9582 13.8996 16.9582 13.4282C16.9582 12.9568 16.5669 12.571 16.0886 12.571H14.3496V10.8567C14.3496 10.3852 13.9583 9.99951 13.4801 9.99951C13.0018 9.99951 12.6105 10.3852 12.6105 10.8567V12.571H10.8715C10.3932 12.571 10.002 12.9568 10.002 13.4282C10.002 13.8996 10.3932 14.2854 10.8715 14.2854H12.6105V15.9997Z" fill="#FCFCFC"/>
<path d="M21.3058 23.7143C22.7465 23.7143 23.9144 22.563 23.9144 21.1428C23.9144 19.7226 22.7465 18.5713 21.3058 18.5713C19.8652 18.5713 18.6973 19.7226 18.6973 21.1428C18.6973 22.563 19.8652 23.7143 21.3058 23.7143Z" fill="#FCFCFC"/>
<path d="M28.2628 14.2852H25.5064L24.4282 13.128C24.2661 12.9526 24.0688 12.8125 23.8487 12.7166C23.6286 12.6206 23.3906 12.571 23.15 12.5709H17.585C17.7328 12.828 17.8285 13.1109 17.8285 13.428C17.8285 14.3709 17.0459 15.1424 16.0894 15.1424H15.2199V15.9996C15.2199 16.9424 14.4373 17.7139 13.4809 17.7139C13.1591 17.7139 12.8722 17.6196 12.6113 17.4739V26.2856C12.6113 27.2285 13.3939 28 14.3504 28H28.2628C29.2193 28 30.0018 27.2285 30.0018 26.2856V15.9996C30.0018 15.0567 29.2193 14.2852 28.2628 14.2852ZM21.3066 25.4285C18.9067 25.4285 16.959 23.5084 16.959 21.1426C16.959 18.7768 18.9067 16.8567 21.3066 16.8567C23.7065 16.8567 25.6542 18.7768 25.6542 21.1426C25.6542 23.5084 23.7065 25.4285 21.3066 25.4285Z" fill="#FCFCFC"/>
</svg>
