<svg width="33" height="28" viewBox="0 0 33 28" fill="none" xmlns="http://www.w3.org/2000/svg">
<path fill-rule="evenodd" clip-rule="evenodd" d="M32.9606 14.5008C31.709 15.1607 30.2829 15.5342 28.7695 15.5342C23.799 15.5342 19.7695 11.5047 19.7695 6.53417C19.7695 5.27961 20.0262 4.085 20.49 3C13.591 3.00542 8 8.59978 8 15.5C8 22.4036 13.5964 28 20.5 28C27.4036 28 33 22.4036 33 15.5C33 15.1637 32.9867 14.8304 32.9606 14.5008Z" fill="#202121"/>
<path d="M7.5 0L8.44532 2.91964L11 4L8.44532 5.08036L7.5 8L6.55468 5.08036L4 4L6.55468 2.91964L7.5 0Z" fill="#202121"/>
<path d="M2.5 6L3.17523 8.18973L5 9L3.17523 9.81027L2.5 12L1.82477 9.81027L0 9L1.82477 8.18973L2.5 6Z" fill="#202121"/>
</svg>
