<svg width="38" height="38" viewBox="0 0 38 38" fill="none" xmlns="http://www.w3.org/2000/svg">
<path d="M31.5059 19.0054C31.5059 25.9089 25.9094 31.5054 19.0059 31.5054C12.1023 31.5054 6.50586 25.9089 6.50586 19.0054C6.50586 12.1018 12.1023 6.50537 19.0059 6.50537C25.9094 6.50537 31.5059 12.1018 31.5059 19.0054Z" fill="#FFB800"/>
<rect x="38" y="18.9995" width="2" height="4" transform="rotate(90 38 18.9995)" fill="#FFB800"/>
<rect x="32.4355" y="32.4341" width="2" height="4" transform="rotate(135 32.4355 32.4341)" fill="#FFB800"/>
<rect x="18.9258" y="37.9995" width="2" height="4" transform="rotate(-179.779 18.9258 37.9995)" fill="#FFB800"/>
<rect x="5.51367" y="32.3833" width="2" height="4" transform="rotate(-134.792 5.51367 32.3833)" fill="#FFB800"/>
<rect y="18.8501" width="2" height="4" transform="rotate(-89.5577 0 18.8501)" fill="#FFB800"/>
<rect x="5.6582" y="5.47119" width="2" height="4" transform="rotate(-44.5837 5.6582 5.47119)" fill="#FFB800"/>
<rect x="19.2227" y="0.000488281" width="2" height="4" transform="rotate(0.663504 19.2227 0.000488281)" fill="#FFB800"/>
<rect x="32.5742" y="5.70557" width="2" height="4" transform="rotate(45.6245 32.5742 5.70557)" fill="#FFB800"/>
</svg>
