<svg width="25" height="24" viewBox="0 0 25 24" fill="none" xmlns="http://www.w3.org/2000/svg">
<path d="M10.04 15.92V10.58L8.54004 12.25M10.52 4.47L12.5 2" stroke="#656565" stroke-width="1.5" stroke-linecap="round" stroke-linejoin="round"/>
<path d="M5.41035 7.79997C4.30035 9.27997 3.61035 11.11 3.61035 13.11C3.61035 15.4677 4.54697 17.729 6.21417 19.3962C7.88137 21.0633 10.1426 22 12.5004 22C14.8581 22 17.1193 21.0633 18.7865 19.3962C20.4537 17.729 21.3904 15.4677 21.3904 13.11C21.3904 10.7522 20.4537 8.49099 18.7865 6.82379C17.1193 5.15659 14.8581 4.21997 12.5004 4.21997C11.8204 4.21997 11.1604 4.30997 10.5204 4.45997" stroke="#656565" stroke-width="1.5" stroke-linecap="round" stroke-linejoin="round"/>
<path d="M14.5 10.58C15.6 10.58 16.5 11.48 16.5 12.58V13.93C16.5 15.03 15.6 15.93 14.5 15.93C13.4 15.93 12.5 15.03 12.5 13.93V12.58C12.5 12.0496 12.7107 11.5409 13.0858 11.1658C13.4609 10.7907 13.9696 10.58 14.5 10.58Z" stroke="#656565" stroke-width="1.5" stroke-linecap="round" stroke-linejoin="round"/>
</svg>
