<svg width="33" height="32" viewBox="0 0 33 32" fill="none" xmlns="http://www.w3.org/2000/svg">
<path d="M23.167 17.8667V21.8667C23.167 27.2 21.0337 29.3333 15.7003 29.3333H10.6337C5.30033 29.3333 3.16699 27.2 3.16699 21.8667V16.8C3.16699 11.4667 5.30033 9.33334 10.6337 9.33334H14.6337" stroke="#656565" stroke-linecap="round" stroke-linejoin="round"/>
<path d="M15.9663 2.66667H21.2997M9.83301 6.66667C9.83301 4.45333 11.6197 2.66667 13.833 2.66667H17.3263M29.833 10.6667V18.92C29.833 20.9867 28.153 22.6667 26.0863 22.6667M29.833 10.6667H25.833C22.833 10.6667 21.833 9.66667 21.833 6.66667V2.66667L29.833 10.6667ZM23.1663 17.8667H18.8997C15.6997 17.8667 14.633 16.8 14.633 13.6V9.33333L23.1663 17.8667Z" stroke="#656565" stroke-linecap="round" stroke-linejoin="round"/>
</svg>
