<svg width="16" height="16" viewBox="0 0 16 16" fill="none" xmlns="http://www.w3.org/2000/svg">
<path d="M8.00187 8.95297C8.27502 8.95297 8.5455 8.89917 8.79786 8.79464C9.05021 8.69011 9.27951 8.5369 9.47266 8.34375C9.6658 8.15061 9.81901 7.92131 9.92354 7.66895C10.0281 7.41659 10.0819 7.14612 10.0819 6.87297C10.0819 6.59982 10.0281 6.32934 9.92354 6.07699C9.81901 5.82463 9.6658 5.59533 9.47266 5.40219C9.27951 5.20904 9.05021 5.05583 8.79786 4.9513C8.5455 4.84677 8.27502 4.79297 8.00187 4.79297C7.45022 4.79297 6.92117 5.01211 6.53109 5.40219C6.14102 5.79226 5.92188 6.32132 5.92188 6.87297C5.92188 7.42462 6.14102 7.95368 6.53109 8.34375C6.92117 8.73383 7.45022 8.95297 8.00187 8.95297Z" stroke="#A87700"/>
<path d="M2.41184 5.65968C3.72517 -0.113657 12.2785 -0.106991 13.5852 5.66634C14.3518 9.05301 12.2452 11.9197 10.3985 13.693C9.75322 14.3154 8.89167 14.6631 7.99517 14.6631C7.09867 14.6631 6.23712 14.3154 5.59184 13.693C3.75184 11.9197 1.64517 9.04634 2.41184 5.65968Z" stroke="#A87700"/>
</svg>