<svg width="22" height="22" viewBox="0 0 22 22" fill="none" xmlns="http://www.w3.org/2000/svg">
<path d="M11.0006 12.3098C11.3762 12.3098 11.7481 12.2359 12.0951 12.0921C12.4421 11.9484 12.7574 11.7377 13.023 11.4722C13.2885 11.2066 13.4992 10.8913 13.6429 10.5443C13.7866 10.1973 13.8606 9.82542 13.8606 9.44984C13.8606 9.07426 13.7866 8.70236 13.6429 8.35537C13.4992 8.00838 13.2885 7.69309 13.023 7.42752C12.7574 7.16194 12.4421 6.95128 12.0951 6.80755C11.7481 6.66382 11.3762 6.58984 11.0006 6.58984C10.2421 6.58984 9.51465 6.89116 8.9783 7.42752C8.44195 7.96387 8.14062 8.69132 8.14062 9.44984C8.14063 10.2084 8.44195 10.9358 8.9783 11.4722C9.51465 12.0085 10.2421 12.3098 11.0006 12.3098Z" stroke="#A87700" stroke-width="1.5"/>
<path d="M3.31628 7.78205C5.12211 -0.156279 16.8829 -0.147112 18.6796 7.79122C19.7338 12.4479 16.8371 16.3896 14.2979 18.8279C13.4107 19.6836 12.2261 20.1618 10.9934 20.1618C9.76067 20.1618 8.57604 19.6836 7.68878 18.8279C5.15878 16.3896 2.26211 12.4387 3.31628 7.78205Z" stroke="#A87700" stroke-width="1.5"/>
</svg>
