<svg width="28" height="28" viewBox="0 0 28 28" fill="none" xmlns="http://www.w3.org/2000/svg">
<path d="M10.1172 16.7183C10.1172 18.2233 11.2722 19.4367 12.7072 19.4367H15.6355C16.8839 19.4367 17.8989 18.375 17.8989 17.0683C17.8989 15.645 17.2805 15.1433 16.3589 14.8167L11.6572 13.1833C10.7355 12.8567 10.1172 12.355 10.1172 10.9317C10.1172 9.625 11.1322 8.56333 12.3805 8.56333H15.3089C16.7439 8.56333 17.8989 9.77667 17.8989 11.2817M13.9999 7V21" stroke="#656565" stroke-linecap="round" stroke-linejoin="round"/>
<path d="M17.4997 25.6667H10.4997C4.66634 25.6667 2.33301 23.3333 2.33301 17.5V10.5C2.33301 4.66668 4.66634 2.33334 10.4997 2.33334H17.4997C23.333 2.33334 25.6663 4.66668 25.6663 10.5V17.5C25.6663 23.3333 23.333 25.6667 17.4997 25.6667Z" stroke="#656565" stroke-linecap="round" stroke-linejoin="round"/>
</svg>
