<svg width="28" height="28" viewBox="0 0 28 28" fill="none" xmlns="http://www.w3.org/2000/svg">
<path d="M11.7957 13.0088H8.70402C7.96902 13.0088 7.37402 13.6038 7.37402 14.3388V20.3121H11.7957V13.0088Z" stroke="#656565" stroke-miterlimit="10" stroke-linecap="round" stroke-linejoin="round"/>
<path d="M14.8885 7.69955H13.1152C12.3802 7.69955 11.7852 8.29455 11.7852 9.02955V20.2996H16.2068V9.02955C16.2068 8.29455 15.6235 7.69955 14.8885 7.69955ZM19.3067 14.9912H16.215V20.2996H20.6367V16.3212C20.625 15.5862 20.03 14.9912 19.3067 14.9912Z" stroke="#656565" stroke-miterlimit="10" stroke-linecap="round" stroke-linejoin="round"/>
<path d="M10.4997 25.6667H17.4997C23.333 25.6667 25.6663 23.3333 25.6663 17.5V10.5C25.6663 4.66668 23.333 2.33334 17.4997 2.33334H10.4997C4.66634 2.33334 2.33301 4.66668 2.33301 10.5V17.5C2.33301 23.3333 4.66634 25.6667 10.4997 25.6667Z" stroke="#656565" stroke-linecap="round" stroke-linejoin="round"/>
</svg>
