<svg width="28" height="28" viewBox="0 0 28 28" fill="none" xmlns="http://www.w3.org/2000/svg">
<path d="M10.4997 25.6667H17.4997C23.333 25.6667 25.6663 23.3333 25.6663 17.5V10.5C25.6663 4.66668 23.333 2.33334 17.4997 2.33334H10.4997C4.66634 2.33334 2.33301 4.66668 2.33301 10.5V17.5C2.33301 23.3333 4.66634 25.6667 10.4997 25.6667Z" stroke="#656565" stroke-linecap="round" stroke-linejoin="round"/>
<path d="M12.1911 18.9929L11.1994 17.9896M18.9928 15.8779C18.3677 16.5054 17.5825 16.9492 16.7226 17.1611C15.8626 17.373 14.9611 17.3448 14.1161 17.0796L11.0944 20.0896C10.8844 20.3113 10.4527 20.4513 10.1377 20.4046L8.73775 20.2179C8.27108 20.1596 7.85108 19.7163 7.78108 19.2613L7.59442 17.8613C7.54775 17.5579 7.69942 17.1263 7.90942 16.9046L10.9194 13.8946C10.4061 12.2263 10.8027 10.3363 12.1211 9.01793C14.0111 7.12793 17.0911 7.12793 18.9928 9.01793C20.8828 10.8963 20.8828 13.9763 18.9928 15.8779Z" stroke="#656565" stroke-miterlimit="10" stroke-linecap="round" stroke-linejoin="round"/>
<path d="M15.627 12.4838H15.6363" stroke="#656565" stroke-width="2" stroke-linecap="round" stroke-linejoin="round"/>
</svg>
