<svg width="120" height="60" viewBox="0 0 120 60" fill="none" xmlns="http://www.w3.org/2000/svg">
<rect width="120" height="60" rx="2" fill="#00987D"/>
<rect x="45" y="15" width="30" height="30" rx="2" fill="#00987D"/>
<path d="M64.7772 40.3574C56.8252 40.3574 50.3555 33.8877 50.3555 25.9357C50.3585 24.5717 50.8567 23.2553 51.7575 22.231C52.6583 21.2068 53.9004 20.5445 55.2528 20.3674C55.5976 20.3291 55.9456 20.4017 56.2463 20.5746C56.547 20.7475 56.7849 21.0116 56.9253 21.3288L58.9384 26.0259C59.0428 26.2697 59.0847 26.5357 59.0602 26.7998C59.0357 27.0639 58.9456 27.3177 58.7982 27.5381L57.1357 30.082C57.8885 31.6098 59.1289 32.8431 60.661 33.5872L63.1747 31.9147C63.395 31.7663 63.6494 31.6764 63.914 31.6536C64.1786 31.6309 64.4447 31.6759 64.687 31.7845L69.3841 33.7875C69.7012 33.928 69.9654 34.1659 70.1383 34.4666C70.3112 34.7673 70.3838 35.1153 70.3455 35.4601C70.1684 36.8125 69.5061 38.0546 68.4819 38.9554C67.4576 39.8562 66.1411 40.3544 64.7772 40.3574ZM55.4531 21.9598C54.4866 22.084 53.5986 22.5563 52.9552 23.2881C52.3118 24.02 51.9572 24.9613 51.9579 25.9357C51.9605 29.3348 53.312 32.5939 55.7155 34.9974C58.119 37.4009 61.3781 38.7524 64.7772 38.755C65.7516 38.7557 66.6929 38.4011 67.4248 37.7577C68.1566 37.1143 68.6289 36.2263 68.7531 35.2598L64.0561 33.2567L61.5523 34.9293C61.3219 35.0816 61.0561 35.1717 60.7806 35.191C60.5051 35.2103 60.2293 35.1581 59.9799 35.0394C58.1141 34.1369 56.6048 32.6346 55.6935 30.773C55.5733 30.5245 55.5194 30.2492 55.537 29.9737C55.5545 29.6982 55.6429 29.4319 55.7936 29.2006L57.4662 26.6568L55.4531 21.9598Z" fill="#FCFCFC"/>
</svg>
