<<<<<<
<svg width="30" height="30" viewBox="0 0 30 30" fill="none" xmlns="http://www.w3.org/2000/svg">
<rect width="30" height="30" rx="2" fill="#00986B"/>
<path d="M19.7772 25.3574C11.8252 25.3574 5.35547 18.8877 5.35547 10.9357C5.35848 9.57175 5.8567 8.25525 6.7575 7.23103C7.6583 6.2068 8.90039 5.54454 10.2528 5.36737C10.5976 5.32914 10.9456 5.40173 11.2463 5.5746C11.547 5.74748 11.7849 6.01165 11.9253 6.32881L13.9384 11.0259C14.0428 11.2697 14.0847 11.5357 14.0602 11.7998C14.0357 12.0639 13.9456 12.3177 13.7982 12.5381L12.1357 15.082C12.8885 16.6098 14.1289 17.8431 15.661 18.5872L18.1747 16.9147C18.395 16.7663 18.6494 16.6764 18.914 16.6536C19.1786 16.6309 19.4447 16.6759 19.687 16.7845L24.3841 18.7875C24.7012 18.928 24.9654 19.1659 25.1383 19.4666C25.3112 19.7673 25.3838 20.1153 25.3455 20.4601C25.1684 21.8125 24.5061 23.0546 23.4819 23.9554C22.4576 24.8562 21.1411 25.3544 19.7772 25.3574ZM10.4531 6.95976C9.48663 7.084 8.59855 7.55627 7.95517 8.28814C7.31179 9.02 6.95723 9.96128 6.95788 10.9357C6.96053 14.3348 8.31198 17.5939 10.7155 19.9974C13.119 22.4009 16.3781 23.7524 19.7772 23.755C20.7516 23.7557 21.6929 23.4011 22.4248 22.7577C23.1566 22.1143 23.6289 21.2263 23.7531 20.2598L19.0561 18.2567L16.5523 19.9293C16.3219 20.0816 16.0561 20.1717 15.7806 20.191C15.5051 20.2103 15.2293 20.1581 14.9799 20.0394C13.1141 19.1369 11.6048 17.6346 10.6935 15.773C10.5733 15.5245 10.5194 15.2492 10.537 14.9737C10.5545 14.6982 10.6429 14.4319 10.7936 14.2006L12.4662 11.6568L10.4531 6.95976Z" fill="white"/>
=======
<svg width="21" height="21" viewBox="0 0 21 21" fill="none" xmlns="http://www.w3.org/2000/svg">
<path d="M14.7772 20.3574C6.8252 20.3574 0.355469 13.8877 0.355469 5.93574C0.358476 4.57175 0.856696 3.25525 1.7575 2.23103C2.6583 1.2068 3.90039 0.544537 5.25283 0.367367C5.5976 0.32914 5.94557 0.401727 6.2463 0.574601C6.54703 0.747476 6.78488 1.01165 6.92535 1.32881L8.93837 6.02587C9.04279 6.26968 9.08466 6.53571 9.06017 6.7998C9.03569 7.0639 8.94563 7.31769 8.79816 7.53815L7.13566 10.082C7.88848 11.6098 9.12891 12.8431 10.661 13.5872L13.1747 11.9147C13.395 11.7663 13.6494 11.6764 13.914 11.6536C14.1786 11.6309 14.4447 11.6759 14.687 11.7845L19.3841 13.7875C19.7012 13.928 19.9654 14.1659 20.1383 14.4666C20.3112 14.7673 20.3838 15.1153 20.3455 15.4601C20.1684 16.8125 19.5061 18.0546 18.4819 18.9554C17.4576 19.8562 16.1411 20.3544 14.7772 20.3574ZM5.45313 1.95976C4.48663 2.084 3.59855 2.55627 2.95517 3.28814C2.31179 4.02 1.95723 4.96128 1.95788 5.93574C1.96053 9.33481 3.31198 12.5939 5.71549 14.9974C8.11899 17.4009 11.3781 18.7524 14.7772 18.755C15.7516 18.7557 16.6929 18.4011 17.4248 17.7577C18.1566 17.1143 18.6289 16.2263 18.7531 15.2598L14.0561 13.2567L11.5523 14.9293C11.3219 15.0816 11.0561 15.1717 10.7806 15.191C10.5051 15.2103 10.2293 15.1581 9.97994 15.0394C8.11408 14.1369 6.6048 12.6346 5.69349 10.773C5.57334 10.5245 5.51943 10.2492 5.53697 9.97367C5.55452 9.69819 5.64293 9.43191 5.79365 9.20065L7.46616 6.65682L5.45313 1.95976Z" fill="white"/>
>>>>>>
</svg>
