<svg width="20" height="18" viewBox="0 0 20 18" fill="none" xmlns="http://www.w3.org/2000/svg">
<path d="M18.5194 0.00183939C18.2724 0.0198095 18.0299 0.0777556 17.8015 0.173417H17.7984C17.5791 0.26036 16.5366 0.698922 14.9516 1.36369L9.27185 3.75578C5.19629 5.47156 1.18999 7.16118 1.18999 7.16118L1.23769 7.14271C1.23769 7.14271 0.961475 7.2335 0.672947 7.43124C0.494697 7.54466 0.341312 7.69308 0.222074 7.86749C0.0805034 8.07523 -0.0333689 8.393 0.00894855 8.72153C0.0781952 9.27705 0.438278 9.6102 0.696799 9.79409C0.958397 9.98028 1.20769 10.0672 1.20769 10.0672H1.21384L4.97086 11.3329C5.13936 11.8738 6.11574 15.0838 6.35041 15.8232C6.4889 16.2648 6.62355 16.541 6.79205 16.7518C6.8736 16.8596 6.96901 16.9496 7.08365 17.0219C7.14325 17.0566 7.2068 17.084 7.27292 17.1035L7.23445 17.0942C7.246 17.0973 7.25523 17.1065 7.26369 17.1096C7.29447 17.1181 7.31524 17.1212 7.35448 17.1273C7.94923 17.3074 8.42704 16.938 8.42704 16.938L8.45397 16.9165L10.6722 14.8968L14.3899 17.749L14.4746 17.7852C15.2494 18.1252 16.0342 17.936 16.4489 17.602C16.8667 17.2658 17.029 16.8357 17.029 16.8357L17.0559 16.7665L19.9289 2.04846C20.0105 1.6853 20.0312 1.34522 19.9412 1.01515C19.8484 0.681092 19.6341 0.393781 19.3403 0.209579C19.0937 0.0596333 18.8076 -0.012742 18.5194 0.00183939ZM18.4416 1.57912C18.4386 1.6276 18.4478 1.62221 18.4263 1.71531V1.72377L15.5802 16.2887C15.5679 16.3094 15.5471 16.3548 15.4902 16.4002C15.4302 16.4479 15.3825 16.4779 15.1324 16.3787L10.5852 12.8925L7.83844 15.3961L8.41549 11.7107L15.8449 4.78602C16.1511 4.50133 16.0488 4.44132 16.0488 4.44132C16.0703 4.09201 15.5864 4.33899 15.5864 4.33899L6.21807 10.1426L6.21499 10.1272L1.72473 8.61536V8.61228L1.71319 8.60997C1.72106 8.60736 1.72877 8.60427 1.73627 8.60074L1.76089 8.58843L1.78474 8.57996C1.78474 8.57996 5.79412 6.89034 9.86968 5.17457C11.9101 4.31514 13.966 3.44955 15.5471 2.78171C16.4848 2.38701 17.4235 1.99461 18.3632 1.60452C18.4263 1.57989 18.3962 1.57912 18.4416 1.57912Z" fill="white"/>
</svg>
