<svg width="120" height="60" viewBox="0 0 120 60" fill="none" xmlns="http://www.w3.org/2000/svg">
<rect width="120" height="60" rx="2" fill="#0094E0"/>
<rect x="45" y="15" width="30" height="30" rx="2" fill="#0094E0"/>
<path d="M68.5194 21.0018C68.2724 21.0198 68.0299 21.0778 67.8015 21.1734H67.7984C67.5791 21.2604 66.5366 21.6989 64.9516 22.3637L59.2718 24.7558C55.1963 26.4716 51.19 28.1612 51.19 28.1612L51.2377 28.1427C51.2377 28.1427 50.9615 28.2335 50.6729 28.4312C50.4947 28.5447 50.3413 28.6931 50.2221 28.8675C50.0805 29.0752 49.9666 29.393 50.0089 29.7215C50.0782 30.277 50.4383 30.6102 50.6968 30.7941C50.9584 30.9803 51.2077 31.0672 51.2077 31.0672H51.2138L54.9709 32.3329C55.1394 32.8738 56.1157 36.0838 56.3504 36.8232C56.4889 37.2648 56.6235 37.541 56.792 37.7518C56.8736 37.8596 56.969 37.9496 57.0837 38.0219C57.1432 38.0566 57.2068 38.084 57.2729 38.1035L57.2345 38.0942C57.246 38.0973 57.2552 38.1065 57.2637 38.1096C57.2945 38.1181 57.3152 38.1212 57.3545 38.1273C57.9492 38.3074 58.427 37.938 58.427 37.938L58.454 37.9165L60.6722 35.8968L64.3899 38.749L64.4746 38.7852C65.2494 39.1252 66.0342 38.936 66.4489 38.602C66.8667 38.2658 67.029 37.8357 67.029 37.8357L67.0559 37.7665L69.9289 23.0485C70.0105 22.6853 70.0312 22.3452 69.9412 22.0151C69.8484 21.6811 69.6341 21.3938 69.3403 21.2096C69.0937 21.0596 68.8076 20.9873 68.5194 21.0018ZM68.4416 22.5791C68.4386 22.6276 68.4478 22.6222 68.4263 22.7153V22.7238L65.5802 37.2887C65.5679 37.3094 65.5471 37.3548 65.4902 37.4002C65.4302 37.4479 65.3825 37.4779 65.1324 37.3787L60.5852 33.8925L57.8384 36.3961L58.4155 32.7107L65.8449 25.786C66.1511 25.5013 66.0488 25.4413 66.0488 25.4413C66.0703 25.092 65.5864 25.339 65.5864 25.339L56.2181 31.1426L56.215 31.1272L51.7247 29.6154V29.6123L51.7132 29.61C51.7211 29.6074 51.7288 29.6043 51.7363 29.6007L51.7609 29.5884L51.7847 29.58C51.7847 29.58 55.7941 27.8903 59.8697 26.1746C61.9101 25.3151 63.966 24.4496 65.5471 23.7817C66.4848 23.387 67.4235 22.9946 68.3632 22.6045C68.4263 22.5799 68.3962 22.5791 68.4416 22.5791Z" fill="#FCFCFC"/>
</svg>
